<?xml version="1.0" encoding="utf-8"?>
<!-- Generator: Adobe Illustrator 19.0.1, SVG Export Plug-In . SVG Version: 6.00 Build 0)  -->
<svg version="1.1" id="Layer_1" class="animate-svg" xmlns:sketch="http://www.bohemiancoding.com/sketch/ns"
	 xmlns="http://www.w3.org/2000/svg" xmlns:xlink="http://www.w3.org/1999/xlink" x="0px" y="0px" viewBox="-268 353.6 74.9 86.4"
	 style="enable-background:new -268 353.6 74.9 86.4;" xml:space="preserve">
<style type="text/css">
	.st0{fill:#FFFFFF;}
	.st1{fill:none;stroke:#FFFFFF;stroke-width:2.88;stroke-linecap:round;stroke-linejoin:round;}
	.animate-svg path{
	     transition: stroke-dashoffset 2s ease-in-out,opacity 0.3s!important;
	     opacity:0!important;
    }
    .animate-svg path.path-animated{
    	stroke-dashoffset : 0!important;
    	opacity:1!important;
    }
</style>
<title>147 - Time Flies (Outline)</title>
<desc>Created with Sketch.</desc>
<g id="Page-1" sketch:type="MSPage">
	<g id="_x31_47---Time-Flies-_x28_Outline_x29_" transform="translate(1.000000, 1.000000)" sketch:type="MSLayerGroup">
		<path id="Fill-548" sketch:type="MSShapeGroup" class="st0" d="M-225.7,430.4c0,0.8-0.6,1.4-1.4,1.4c-0.8,0-1.4-0.6-1.4-1.4
			s0.6-1.4,1.4-1.4C-226.4,429-225.7,429.6-225.7,430.4"/>
		<path id="Fill-549" sketch:type="MSShapeGroup" class="st0" d="M-220,430.4c0,0.8-0.6,1.4-1.4,1.4c-0.8,0-1.4-0.6-1.4-1.4
			s0.6-1.4,1.4-1.4S-220,429.6-220,430.4"/>
		<path id="Fill-550" sketch:type="MSShapeGroup" class="st0" d="M-214.2,430.4c0,0.8-0.6,1.4-1.4,1.4s-1.4-0.6-1.4-1.4
			s0.6-1.4,1.4-1.4S-214.2,429.6-214.2,430.4"/>
		<path id="Fill-551" sketch:type="MSShapeGroup" class="st0" d="M-208.5,430.4c0,0.8-0.6,1.4-1.4,1.4c-0.8,0-1.4-0.6-1.4-1.4
			s0.6-1.4,1.4-1.4S-208.5,429.6-208.5,430.4"/>
		<path id="Fill-552" sketch:type="MSShapeGroup" class="st0" d="M-222.9,427.6c0,0.8-0.6,1.4-1.4,1.4s-1.4-0.6-1.4-1.4
			s0.6-1.4,1.4-1.4S-222.9,426.8-222.9,427.6"/>
		<path id="Fill-553" sketch:type="MSShapeGroup" class="st0" d="M-217.1,427.6c0,0.8-0.6,1.4-1.4,1.4s-1.4-0.6-1.4-1.4
			s0.6-1.4,1.4-1.4S-217.1,426.8-217.1,427.6"/>
		<path id="Fill-554" sketch:type="MSShapeGroup" class="st0" d="M-211.3,427.6c0,0.8-0.6,1.4-1.4,1.4s-1.4-0.6-1.4-1.4
			s0.6-1.4,1.4-1.4S-211.3,426.8-211.3,427.6"/>
		<path id="Fill-555" sketch:type="MSShapeGroup" class="st0" d="M-225.7,400.2c0,0.8-0.6,1.4-1.4,1.4c-0.8,0-1.4-0.6-1.4-1.4
			s0.6-1.4,1.4-1.4C-226.4,398.8-225.7,399.4-225.7,400.2"/>
		<path id="Fill-556" sketch:type="MSShapeGroup" class="st0" d="M-222.9,384.4c0,0.8-0.6,1.4-1.4,1.4s-1.4-0.6-1.4-1.4
			s0.6-1.4,1.4-1.4S-222.9,383.6-222.9,384.4"/>
		<path id="Fill-557" sketch:type="MSShapeGroup" class="st0" d="M-217.1,384.4c0,0.8-0.6,1.4-1.4,1.4s-1.4-0.6-1.4-1.4
			s0.6-1.4,1.4-1.4S-217.1,383.6-217.1,384.4"/>
		<path id="Fill-558" sketch:type="MSShapeGroup" class="st0" d="M-220,381.5c0,0.8-0.6,1.4-1.4,1.4c-0.8,0-1.4-0.6-1.4-1.4
			s0.6-1.4,1.4-1.4C-220.6,380-220,380.7-220,381.5"/>
		<path id="Fill-559" sketch:type="MSShapeGroup" class="st0" d="M-217.1,378.6c0,0.8-0.6,1.4-1.4,1.4s-1.4-0.6-1.4-1.4
			s0.6-1.4,1.4-1.4S-217.1,377.8-217.1,378.6"/>
		<path id="Fill-560" sketch:type="MSShapeGroup" class="st0" d="M-222.9,390.1c0,0.8-0.6,1.4-1.4,1.4s-1.4-0.6-1.4-1.4
			s0.6-1.4,1.4-1.4S-222.9,389.3-222.9,390.1"/>
		<path id="Fill-561" sketch:type="MSShapeGroup" class="st0" d="M-225.7,387.2c0,0.8-0.6,1.4-1.4,1.4c-0.8,0-1.4-0.6-1.4-1.4
			s0.6-1.4,1.4-1.4C-226.4,385.8-225.7,386.4-225.7,387.2"/>
		<path id="Fill-562" sketch:type="MSShapeGroup" class="st0" d="M-220,387.2c0,0.8-0.6,1.4-1.4,1.4c-0.8,0-1.4-0.6-1.4-1.4
			s0.6-1.4,1.4-1.4S-220,386.4-220,387.2"/>
		<path id="Fill-563" sketch:type="MSShapeGroup" class="st0" d="M-225.7,404.5c0,0.8-0.6,1.4-1.4,1.4c-0.8,0-1.4-0.6-1.4-1.4
			s0.6-1.4,1.4-1.4C-226.4,403.1-225.7,403.7-225.7,404.5"/>
		<path id="Fill-564" sketch:type="MSShapeGroup" class="st0" d="M-225.7,408.8c0,0.8-0.6,1.4-1.4,1.4c-0.8,0-1.4-0.6-1.4-1.4
			s0.6-1.4,1.4-1.4C-226.4,407.4-225.7,408-225.7,408.8"/>
		<path id="Fill-565" sketch:type="MSShapeGroup" class="st0" d="M-225.7,413.2c0,0.8-0.6,1.4-1.4,1.4c-0.8,0-1.4-0.6-1.4-1.4
			s0.6-1.4,1.4-1.4C-226.4,411.7-225.7,412.4-225.7,413.2"/>
		<path id="Fill-566" sketch:type="MSShapeGroup" class="st0" d="M-225.7,417.5c0,0.8-0.6,1.4-1.4,1.4c-0.8,0-1.4-0.6-1.4-1.4
			s0.6-1.4,1.4-1.4C-226.4,416-225.7,416.7-225.7,417.5"/>
		<path id="Fill-567" sketch:type="MSShapeGroup" class="st0" d="M-225.7,421.8c0,0.8-0.6,1.4-1.4,1.4c-0.8,0-1.4-0.6-1.4-1.4
			s0.6-1.4,1.4-1.4C-226.4,420.4-225.7,421-225.7,421.8"/>
		<path id="Fill-568" sketch:type="MSShapeGroup" class="st0" d="M-220,424.7c0,0.8-0.6,1.4-1.4,1.4c-0.8,0-1.4-0.6-1.4-1.4
			s0.6-1.4,1.4-1.4C-220.6,423.2-220,423.9-220,424.7"/>
		<path id="Fill-569" sketch:type="MSShapeGroup" class="st0" d="M-214.2,424.7c0,0.8-0.6,1.4-1.4,1.4s-1.4-0.6-1.4-1.4
			s0.6-1.4,1.4-1.4S-214.2,423.9-214.2,424.7"/>
		<path id="Stroke-571" sketch:type="MSShapeGroup" class="st1" d="M-247.3,370h7.2 M-254.5,380h14.4 M-261.8,390.1h21.6
			 M-267.5,400.2h27.4 M-258.9,410.3h18.7 M-250.3,420.4h10.1"/>
		<path id="Path" sketch:type="MSShapeGroup" class="st1" d="M-231.5,359.9h33.1c1.6,0,2.9-1.3,2.9-2.9s-1.3-2.9-2.9-2.9h-33.1
			V359.9z"/>
		<path id="Path_1_" sketch:type="MSShapeGroup" class="st1" d="M-224.3,395.9c10.5-4.4,17.3-14.6,17.3-25.9v-10.1h-24.5"/>
		<path id="Path_2_" sketch:type="MSShapeGroup" class="st1" d="M-231.5,431.9h24.5v-10.1c0-11.3-6.8-21.6-17.3-25.9"/>
		<path id="Path_3_" sketch:type="MSShapeGroup" class="st1" d="M-231.5,437.6h33.1c1.6,0,2.9-1.3,2.9-2.9s-1.3-2.9-2.9-2.9h-33.1
			V437.6z"/>
	</g>
</g>
</svg>
