<?xml version="1.0" encoding="UTF-8" standalone="no"?>
<svg width="58px" class="animate-svg" height="58px" viewBox="0 0 58 58" version="1.1" xmlns="http://www.w3.org/2000/svg" xmlns:xlink="http://www.w3.org/1999/xlink" xmlns:sketch="http://www.bohemiancoding.com/sketch/ns">
    <!-- Generator: Sketch 3.2.2 (9983) - http://www.bohemiancoding.com/sketch -->
    <title>165 - Dollar (Outline)</title>
	<style type="text/css">
		.animate-svg path{
         transition: stroke-dashoffset 2s ease-in-out,opacity 0.3s,fill 400ms,stroke 400ms!important;
         opacity:0!important;
        }
        .animate-svg path.path-animated{
        	stroke-dashoffset : 0!important;
        	opacity:1!important;
        }
	</style>
    <desc>Created with Sketch.</desc>
    <defs></defs>
    <g id="Page-1" stroke="none" stroke-width="1" fill="none" fill-rule="evenodd" sketch:type="MSPage">
        <g id="165---Dollar-(Outline)" sketch:type="MSLayerGroup" transform="translate(1.000000, 1.000000)">
            <path d="M30.5416739,56 C17.0106739,56 6.04167392,43.464 6.04167392,28 C6.04167392,12.536 17.0106739,0 30.5416739,0 C44.0726739,0 55.0416739,12.536 55.0416739,28 C55.0416739,43.464 44.0726739,56 30.5416739,56 L30.5416739,56 Z" id="Stroke-288" stroke="#000000" stroke-width="2" stroke-linecap="round" sketch:type="MSShapeGroup"></path>
            <path d="M6.04167392,28 C6.04167392,13.698 15.4266739,1.908 27.5416739,0.216 C26.5576739,0.079 25.5576739,0 24.5416739,0 C11.0106739,0 0.0416739178,12.536 0.0416739178,28 C0.0416739178,43.464 11.0106739,56 24.5416739,56 C25.5576739,56 26.5576739,55.921 27.5416739,55.784 C15.4266739,54.092 6.04167392,42.302 6.04167392,28 L6.04167392,28 Z" id="Stroke-290" stroke="#000000" stroke-width="2" stroke-linecap="round" sketch:type="MSShapeGroup"></path>
            <path d="M6.04167392,30 L0.180673918,30" id="Stroke-292" stroke="#000000" stroke-width="2" stroke-linecap="round" sketch:type="MSShapeGroup"></path>
            <path d="M6.18067392,25 L0.180673918,25" id="Stroke-294" stroke="#000000" stroke-width="2" stroke-linecap="round" sketch:type="MSShapeGroup"></path>
            <path d="M6.81367392,35 L0.813673918,35" id="Stroke-296" stroke="#000000" stroke-width="2" stroke-linecap="round" sketch:type="MSShapeGroup"></path>
            <path d="M8.40067392,40 L2.39967392,40" id="Stroke-298" stroke="#000000" stroke-width="2" stroke-linecap="round" sketch:type="MSShapeGroup"></path>
            <path d="M7.04167392,20 L1.04167392,20" id="Stroke-300" stroke="#000000" stroke-width="2" stroke-linecap="round" sketch:type="MSShapeGroup"></path>
            <path d="M8.83667392,15 L2.83667392,15" id="Stroke-302" stroke="#000000" stroke-width="2" stroke-linecap="round" sketch:type="MSShapeGroup"></path>
            <path d="M12.5456739,9 L6.54567392,9" id="Stroke-304" stroke="#000000" stroke-width="2" stroke-linecap="round" sketch:type="MSShapeGroup"></path>
            <path d="M17.8556739,4 L11.9146739,4" id="Stroke-306" stroke="#000000" stroke-width="2" stroke-linecap="round" sketch:type="MSShapeGroup"></path>
            <path d="M11.7746739,46 L5.77467392,46" id="Stroke-308" stroke="#000000" stroke-width="2" stroke-linecap="round" sketch:type="MSShapeGroup"></path>
            <path d="M16.5746739,51 L10.5656739,51" id="Stroke-310" stroke="#000000" stroke-width="2" stroke-linecap="round" sketch:type="MSShapeGroup"></path>
            <path d="M30.5416739,49.524 C20.1406739,49.524 11.7086739,39.887 11.7086739,28 C11.7086739,16.113 20.1406739,6.476 30.5416739,6.476 C40.9426739,6.476 49.3746739,16.113 49.3746739,28 C49.3746739,39.887 40.9426739,49.524 30.5416739,49.524" id="Fill-311" sketch:type="MSShapeGroup"></path>
            <path d="M30.5416739,49.524 C20.1406739,49.524 11.7086739,39.887 11.7086739,28 C11.7086739,16.113 20.1406739,6.476 30.5416739,6.476 C40.9426739,6.476 49.3746739,16.113 49.3746739,28 C49.3746739,39.887 40.9426739,49.524 30.5416739,49.524 L30.5416739,49.524 Z" id="Stroke-312" stroke="#000000" stroke-width="2" stroke-linecap="round" stroke-dasharray="1.983,5.948" sketch:type="MSShapeGroup"></path>
            <path d="M30.5506739,41.757 C29.9506739,41.757 29.5626739,41.369 29.5626739,40.769 L29.5626739,39.364 C27.5116739,39.082 26.2426739,38.744 24.5156739,37.359 L24.5156739,38.676 C24.5156739,39.275 24.1276739,39.663 23.5286739,39.663 C22.9286739,39.663 22.5416739,39.275 22.5416739,38.676 L22.5416739,32.507 C22.5416739,31.907 22.9286739,31.52 23.5286739,31.52 C24.1276739,31.52 24.5156739,31.907 24.5156739,32.507 L24.5156739,34.75 C25.5706739,35.897 26.3606739,36.315 28.1306739,36.991 C28.5636739,37.155 29.0436739,37.282 29.5626739,37.371 L29.5626739,27.807 C27.6486739,27.275 26.1976739,26.769 25.2476739,26.298 C24.1956739,25.778 23.3706739,25.122 22.7946739,24.346 C22.2016739,23.548 21.9006739,22.617 21.9006739,21.58 C21.9006739,19.624 22.5566739,18.036 23.8496739,16.859 C25.0816739,15.74 27.0016739,15.152 29.5626739,15.109 L29.5626739,13.82 C29.5626739,13.221 29.9506739,12.833 30.5506739,12.833 C31.1496739,12.833 31.5376739,13.221 31.5376739,13.82 L31.5376739,15.249 C33.3516739,15.586 34.9076739,16.213 36.1666739,17.115 C36.4926739,17.349 36.3396739,17.555 36.5676739,17.733 L36.5676739,16.418 C36.5676739,15.818 36.9546739,15.431 37.5546739,15.431 C38.1536739,15.431 38.5416739,15.818 38.5416739,16.418 L38.5416739,22.587 C38.5416739,23.187 38.1536739,23.574 37.5546739,23.574 C36.9546739,23.574 36.5676739,23.187 36.5676739,22.587 L36.5676739,20.505 C35.4526739,19.272 34.4816739,18.305 32.8286739,17.628 C32.4226739,17.454 31.9916739,17.321 31.5376739,17.231 L31.5376739,26.167 C31.8436739,26.249 32.3526739,26.383 33.0626739,26.568 C34.2916739,26.889 35.4276739,27.305 36.4376739,27.805 C37.4886739,28.325 38.3146739,28.981 38.8906739,29.757 C39.4836739,30.557 39.7846739,31.52 39.7846739,32.62 C39.7846739,34.714 39.0366739,36.405 37.5606739,37.646 C36.1486739,38.833 34.1226739,39.451 31.5376739,39.482 L31.5376739,40.769 C31.5376739,41.369 31.1496739,41.757 30.5506739,41.757 L30.5506739,41.757 Z M26.6596739,37.449 C26.8236739,37.529 26.9896739,37.603 27.1566739,37.675 C26.9876739,37.602 26.8216739,37.526 26.6596739,37.449 L26.6596739,37.449 Z M31.5376739,28.344 L31.5376739,37.509 C33.5606739,37.479 35.1266739,37.031 36.1956739,36.175 C37.2816739,35.304 37.8106739,34.204 37.8106739,32.815 C37.8106739,32.086 37.5886739,31.47 37.1326739,30.929 C36.6526739,30.362 36.0566739,29.915 35.3606739,29.602 C34.6186739,29.268 33.8616739,28.992 33.1116739,28.783 L31.5376739,28.344 L31.5376739,28.344 Z M37.2766739,36.551 C37.1346739,36.69 36.9826739,36.825 36.8206739,36.954 C36.5816739,37.147 36.3206739,37.322 36.0416739,37.479 C36.3606739,37.303 36.6516739,37.103 36.9166739,36.88 C37.0436739,36.773 37.1636739,36.664 37.2766739,36.551 L37.2766739,36.551 Z M29.5626739,17.083 C27.6426739,17.123 26.2066739,17.539 25.2906739,18.323 C24.3376739,19.14 23.8746739,20.109 23.8746739,21.288 C23.8746739,22.018 24.0966739,22.634 24.5516739,23.173 C25.0316739,23.741 25.6276739,24.189 26.3236739,24.501 C27.0656739,24.836 27.7746739,25.101 28.4306739,25.288 C28.8416739,25.405 29.2186739,25.516 29.5626739,25.617 L29.5626739,17.083 L29.5626739,17.083 Z" id="Fill-313" fill="#000000" sketch:type="MSShapeGroup"></path>
        </g>
    </g>
</svg>