<?xml version="1.0" encoding="utf-8"?>
<!-- Generator: Adobe Illustrator 19.0.1, SVG Export Plug-In . SVG Version: 6.00 Build 0)  -->
<svg version="1.1" id="Layer_1" class="animate-svg" xmlns:sketch="http://www.bohemiancoding.com/sketch/ns"
	 xmlns="http://www.w3.org/2000/svg" xmlns:xlink="http://www.w3.org/1999/xlink" x="0px" y="0px"
	 viewBox="-296.8 375.9 103.7 41.5" style="enable-background:new -296.8 375.9 103.7 41.5;" xml:space="preserve">
<style type="text/css">
	.st0{fill:none;stroke:#FFFFFF;stroke-width:3.456;stroke-linecap:round;stroke-linejoin:round;}
	.animate-svg path{
	     transition: stroke-dashoffset 2s ease-in-out,opacity 0.3s!important;
	     opacity:0!important;
    }
    .animate-svg path.path-animated{
    	stroke-dashoffset : 0!important;
    	opacity:1!important;
    }
</style>
<title>372 - Reading List (Outline)</title>
<desc>Created with Sketch.</desc>
<g id="Page-1" sketch:type="MSPage">
	<g id="Icons" transform="translate(-1080.000000, -377.000000)" sketch:type="MSArtboardGroup">
		<g id="_x33_72---Reading-List-_x28_Outline_x29_" transform="translate(1081.000000, 378.000000)" sketch:type="MSLayerGroup">
			<path id="Stroke-14" sketch:type="MSShapeGroup" class="st0" d="M-252.9,395.6c0,10.5-8.3,19-18.9,19c-10.6,0-19.1-8.5-19.1-19
				c0-10.5,8.6-19,19.1-19C-261.2,376.6-252.9,385.1-252.9,395.6L-252.9,395.6z M-201.1,395.6c0,10.5-8.3,19-18.9,19
				c-10.6,0-19.1-8.5-19.1-19c0-10.5,8.6-19,19.1-19C-209.4,376.6-201.1,385.1-201.1,395.6L-201.1,395.6z M-239.1,395.6
				c-3.8-6.1-10-6.1-13.8,0 M-290.9,395.6h-5.2H-290.9z M-201.1,393.9h5.2H-201.1z"/>
		</g>
	</g>
</g>
</svg>
