<?xml version="1.0" encoding="UTF-8" standalone="no"?>
<svg width="56px" height="56px" class="animate-svg" viewBox="0 0 56 56" version="1.1" xmlns="http://www.w3.org/2000/svg" xmlns:xlink="http://www.w3.org/1999/xlink" xmlns:sketch="http://www.bohemiancoding.com/sketch/ns">
    <!-- Generator: Sketch 3.2.2 (9983) - http://www.bohemiancoding.com/sketch -->
    <title>81 - Analitics (Outline)</title>
    <desc>Created with Sketch.</desc>
	<style type="text/css">
		.animate-svg path{
         transition: stroke-dashoffset 2s ease-in-out,opacity 0.3s,fill 400ms,stroke 400ms!important;
         opacity:0!important;
        }
        .animate-svg path.path-animated{
        	stroke-dashoffset : 0!important;
        	opacity:1!important;
        }
	</style>
    <defs></defs>
    <g id="Page-1" stroke="none" stroke-width="1" fill="none" fill-rule="evenodd" sketch:type="MSPage">
        <g id="81---Analitics-(Outline)" sketch:type="MSLayerGroup" transform="translate(1.000000, 1.000000)" stroke="#000000" stroke-width="2">
            <path d="M46.534,54 L7.466,54 C3.343,54 0,50.657 0,46.534 L0,7.466 C0,3.343 3.343,0 7.466,0 L46.534,0 C50.657,0 54,3.343 54,7.466 L54,46.534 C54,50.657 50.657,54 46.534,54 L46.534,54 Z" id="Stroke-669" sketch:type="MSShapeGroup"></path>
            <path d="M29.826,33.174 L46,17" id="Stroke-671" sketch:type="MSShapeGroup"></path>
            <path d="M37,17 L46,17 L46,26" id="Stroke-673" stroke-linecap="round" sketch:type="MSShapeGroup"></path>
            <path d="M31,36 C31,38.209 29.209,40 27,40 C24.791,40 23,38.209 23,36 C23,33.791 24.791,32 27,32 C29.209,32 31,33.791 31,36 L31,36 Z" id="Stroke-675" sketch:type="MSShapeGroup"></path>
            <path d="M14,19 C14,21.209 12.209,23 10,23 C7.791,23 6,21.209 6,19 C6,16.791 7.791,15 10,15 C12.209,15 14,16.791 14,19 L14,19 Z" id="Stroke-677" sketch:type="MSShapeGroup"></path>
            <path d="M24,33 L12.828,21.828" id="Stroke-679" sketch:type="MSShapeGroup"></path>
            <path d="M7.172,21.828 L0,29" id="Stroke-681" sketch:type="MSShapeGroup"></path>
        </g>
    </g>
</svg>