<?xml version="1.0" encoding="utf-8"?>
<!-- Generator: Adobe Illustrator 19.0.1, SVG Export Plug-In . SVG Version: 6.00 Build 0)  -->
<svg version="1.1" id="Layer_1" xmlns:sketch="http://www.bohemiancoding.com/sketch/ns"
	 xmlns="http://www.w3.org/2000/svg" xmlns:xlink="http://www.w3.org/1999/xlink" x="0px" y="0px" viewBox="-279 367 52 60"
	 style="enable-background:new -279 367 52 60;" xml:space="preserve">
<style type="text/css">
	.st0{fill:#1A1718;}
</style>
<title>147 - Time Flies (Outline)</title>
<desc>Created with Sketch.</desc>
<g id="Page-1" sketch:type="MSPage">
	<g id="_x31_47---Time-Flies-_x28_Outline_x29_" transform="translate(485.000000, 3118.000000)" sketch:type="MSLayerGroup">
		<path id="Fill-548" sketch:type="MSShapeGroup" d="M-734-2697c0,0.6-0.4,1-1,1s-1-0.4-1-1s0.4-1,1-1S-734-2697.6-734-2697"/>
		<path id="Fill-549" sketch:type="MSShapeGroup" d="M-730-2697c0,0.6-0.4,1-1,1s-1-0.4-1-1s0.4-1,1-1S-730-2697.6-730-2697"/>
		<path id="Fill-550" sketch:type="MSShapeGroup" d="M-726-2697c0,0.6-0.4,1-1,1s-1-0.4-1-1s0.4-1,1-1S-726-2697.6-726-2697"/>
		<path id="Fill-551" sketch:type="MSShapeGroup" d="M-722-2697c0,0.6-0.4,1-1,1s-1-0.4-1-1s0.4-1,1-1S-722-2697.6-722-2697"/>
		<path id="Fill-552" sketch:type="MSShapeGroup" d="M-732-2699c0,0.6-0.4,1-1,1s-1-0.4-1-1s0.4-1,1-1S-732-2699.6-732-2699"/>
		<path id="Fill-553" sketch:type="MSShapeGroup" d="M-728-2699c0,0.6-0.4,1-1,1s-1-0.4-1-1s0.4-1,1-1S-728-2699.6-728-2699"/>
		<path id="Fill-554" sketch:type="MSShapeGroup" d="M-724-2699c0,0.6-0.4,1-1,1s-1-0.4-1-1s0.4-1,1-1S-724-2699.6-724-2699"/>
		<path id="Fill-555" sketch:type="MSShapeGroup" d="M-734-2718c0,0.6-0.4,1-1,1s-1-0.4-1-1s0.4-1,1-1S-734-2718.6-734-2718"/>
		<path id="Fill-556" sketch:type="MSShapeGroup" d="M-732-2729c0,0.6-0.4,1-1,1s-1-0.4-1-1s0.4-1,1-1S-732-2729.6-732-2729"/>
		<path id="Fill-557" sketch:type="MSShapeGroup" d="M-728-2729c0,0.6-0.4,1-1,1s-1-0.4-1-1s0.4-1,1-1S-728-2729.6-728-2729"/>
		<path id="Fill-558" sketch:type="MSShapeGroup" d="M-730-2731c0,0.6-0.4,1-1,1s-1-0.4-1-1s0.4-1,1-1S-730-2731.6-730-2731"/>
		<path id="Fill-559" sketch:type="MSShapeGroup" d="M-728-2733c0,0.6-0.4,1-1,1s-1-0.4-1-1s0.4-1,1-1S-728-2733.6-728-2733"/>
		<path id="Fill-560" sketch:type="MSShapeGroup" d="M-732-2725c0,0.6-0.4,1-1,1s-1-0.4-1-1s0.4-1,1-1S-732-2725.6-732-2725"/>
		<path id="Fill-561" sketch:type="MSShapeGroup" d="M-734-2727c0,0.6-0.4,1-1,1s-1-0.4-1-1s0.4-1,1-1S-734-2727.6-734-2727"/>
		<path id="Fill-562" sketch:type="MSShapeGroup" d="M-730-2727c0,0.6-0.4,1-1,1s-1-0.4-1-1s0.4-1,1-1S-730-2727.6-730-2727"/>
		<path id="Fill-563" sketch:type="MSShapeGroup" d="M-734-2715c0,0.6-0.4,1-1,1s-1-0.4-1-1s0.4-1,1-1S-734-2715.6-734-2715"/>
		<path id="Fill-564" sketch:type="MSShapeGroup" d="M-734-2712c0,0.6-0.4,1-1,1s-1-0.4-1-1s0.4-1,1-1S-734-2712.6-734-2712"/>
		<path id="Fill-565" sketch:type="MSShapeGroup" d="M-734-2709c0,0.6-0.4,1-1,1s-1-0.4-1-1s0.4-1,1-1S-734-2709.6-734-2709"/>
		<path id="Fill-566" sketch:type="MSShapeGroup" d="M-734-2706c0,0.6-0.4,1-1,1s-1-0.4-1-1s0.4-1,1-1S-734-2706.6-734-2706"/>
		<path id="Fill-567" sketch:type="MSShapeGroup" d="M-734-2703c0,0.6-0.4,1-1,1s-1-0.4-1-1s0.4-1,1-1S-734-2703.6-734-2703"/>
		<path id="Fill-568" sketch:type="MSShapeGroup" d="M-730-2701c0,0.6-0.4,1-1,1s-1-0.4-1-1s0.4-1,1-1S-730-2701.6-730-2701"/>
		<path id="Fill-569" sketch:type="MSShapeGroup" d="M-726-2701c0,0.6-0.4,1-1,1s-1-0.4-1-1s0.4-1,1-1S-726-2701.6-726-2701"/>
		<g id="Stroke-571">
			<path class="st0" d="M-744-2703h-7c-0.6,0-1-0.4-1-1s0.4-1,1-1h7c0.6,0,1,0.4,1,1S-743.4-2703-744-2703z M-744-2710h-13
				c-0.6,0-1-0.4-1-1s0.4-1,1-1h13c0.6,0,1,0.4,1,1S-743.4-2710-744-2710z M-744-2717h-19c-0.6,0-1-0.4-1-1s0.4-1,1-1h19
				c0.6,0,1,0.4,1,1S-743.4-2717-744-2717z M-744-2724h-15c-0.6,0-1-0.4-1-1s0.4-1,1-1h15c0.6,0,1,0.4,1,1S-743.4-2724-744-2724z
				 M-744-2731h-10c-0.6,0-1-0.4-1-1s0.4-1,1-1h10c0.6,0,1,0.4,1,1S-743.4-2731-744-2731z M-744-2738h-5c-0.6,0-1-0.4-1-1s0.4-1,1-1
				h5c0.6,0,1,0.4,1,1S-743.4-2738-744-2738z"/>
		</g>
		<g id="Path">
			<path d="M-715-2745h-23c-0.6,0-1-0.4-1-1v-4c0-0.6,0.4-1,1-1h23c1.7,0,3,1.3,3,3S-713.3-2745-715-2745z M-737-2747h22
				c0.6,0,1-0.4,1-1s-0.4-1-1-1h-22V-2747z"/>
		</g>
		<g id="Path_1_">
			<path d="M-733-2720c-0.4,0-0.8-0.2-0.9-0.6c-0.2-0.5,0-1.1,0.5-1.3c6.9-2.9,11.4-9.6,11.4-17.1v-6h-16c-0.6,0-1-0.4-1-1
				s0.4-1,1-1h17c0.6,0,1,0.4,1,1v7c0,8.3-5,15.7-12.6,18.9C-732.7-2720-732.9-2720-733-2720z"/>
		</g>
		<g id="Path_2_">
			<path d="M-721-2695h-17c-0.6,0-1-0.4-1-1s0.4-1,1-1h16v-6c0-7.5-4.5-14.2-11.4-17.1c-0.5-0.2-0.8-0.8-0.5-1.3s0.8-0.7,1.3-0.5
				c7.7,3.2,12.6,10.6,12.6,18.9v7C-720-2695.4-720.4-2695-721-2695z"/>
		</g>
		<g id="Path_3_">
			<path d="M-715-2691h-23c-0.6,0-1-0.4-1-1v-4c0-0.6,0.4-1,1-1h23c1.7,0,3,1.3,3,3S-713.3-2691-715-2691z M-737-2693h22
				c0.6,0,1-0.4,1-1s-0.4-1-1-1h-22V-2693z"/>
		</g>
	</g>
</g>
</svg>
